<?xml version="1.0" encoding="UTF-8"?>
<svg version="1.1" xmlns="http://www.w3.org/2000/svg" width="600" height="600">
<path d="M0 0 C5.1005011 -0.02514849 10.20096434 -0.04306659 15.30151367 -0.05493164 C17.0284081 -0.05988984 18.75529851 -0.06665843 20.48217773 -0.07543945 C35.44441106 -0.14948835 50.42152758 -0.13748971 65.1875 2.5625 C71.08288295 3.65351729 71.08288295 3.65351729 77.05078125 3.90234375 C80.30735852 4.01017743 82.79477315 4.93825106 85.79541016 6.15332031 C89.82994706 7.70279694 94.02215397 8.73692316 98.1875 9.875 C105.52210316 11.91346151 112.57096389 14.18315816 119.6015625 17.1171875 C122.04326532 18.17271101 122.04326532 18.17271101 125 18 C125 18.66 125 19.32 125 20 C126.2375 20.37125 127.475 20.7425 128.75 21.125 C133.8952621 22.8237532 138.59765672 25.20188372 143.3984375 27.6953125 C146.01094906 29.08287728 146.01094906 29.08287728 149 30 C149 30.66 149 31.32 149 32 C149.87011719 32.2578125 150.74023438 32.515625 151.63671875 32.78125 C155.05103241 34.01849258 157.76743668 35.53383052 160.8125 37.5 C162.24529297 38.41265625 162.24529297 38.41265625 163.70703125 39.34375 C166 41 166 41 167 43 C168.32200834 43.68885135 169.65788491 44.35119393 171 45 C193.47113715 59.73580595 213.01787334 79.98508804 228.37109375 101.8828125 C229.82903893 104.09626667 229.82903893 104.09626667 232 105 C232.99234233 106.65584395 233.92011173 108.35071564 234.8125 110.0625 C237.07212746 114.32636705 239.45660309 118.41706316 242.1171875 122.44140625 C243 124 243 124 243 126 C243.66 126.33 244.32 126.66 245 127 C245.93761121 128.61098653 246.80391401 130.26411715 247.625 131.9375 C248.07101562 132.83339844 248.51703125 133.72929687 248.9765625 134.65234375 C250 137 250 137 250 139 C250.66 139.33 251.32 139.66 252 140 C253.04296875 142.2734375 253.04296875 142.2734375 254.1875 145.375 C254.62191406 146.54417969 255.05632812 147.71335938 255.50390625 148.91796875 C255.74125488 149.56685059 255.97860352 150.21573242 256.22314453 150.88427734 C257.06357827 153.17315188 257.91964041 155.45582459 258.77734375 157.73828125 C267 179.70234478 267 179.70234478 267 186 C267.66 186.33 268.32 186.66 269 187 C269.5625 189.5546875 269.5625 189.5546875 270 192.875 C270.62341536 197.32726561 271.27112351 201.76165373 272.0625 206.1875 C272.21847656 207.06792969 272.37445312 207.94835937 272.53515625 208.85546875 C272.91539163 211.03710823 272.91539163 211.03710823 274 213 C274.24210192 215.75191063 274.42481345 218.48055496 274.55859375 221.23828125 C274.60084579 222.07885574 274.64309784 222.91943024 274.68663025 223.78547668 C275.14963468 233.9178934 275.10919753 244.04708809 275.0625 254.1875 C275.05746585 256.12434778 275.05290639 258.06119685 275.04882812 259.99804688 C275.0379951 264.66539756 275.02084053 269.33268372 275 274 C274.34 274 273.68 274 273 274 C273.33 274.99 273.66 275.98 274 277 C273.57975675 281.32871048 272.71678473 285.5979106 271.9375 289.875 C271.70853027 291.13626709 271.47956055 292.39753418 271.24365234 293.69702148 C268.31876705 309.26320972 263.96525739 324.10458623 258.27197266 338.87524414 C256.84957228 342.5703134 255.60158054 346.06238194 255 350 C254.34 350 253.68 350 253 350 C252.34 352.64 251.68 355.28 251 358 C250.34 358 249.68 358 249 358 C248.6596875 359.2065625 248.6596875 359.2065625 248.3125 360.4375 C246.6576738 364.92917111 244.4129425 368.87692184 242 373 C241.51595703 373.83289551 241.03191406 374.66579102 240.53320312 375.52392578 C236.7225804 381.98439311 232.56759956 388.10217907 228.09375 394.1171875 C225.99348016 396.91852685 225.99348016 396.91852685 224.37109375 399.7265625 C222.63268534 402.60905166 220.40463158 404.65401797 218 407 C217.34 407.825 216.68 408.65 216 409.5 C213.83129632 412.21087959 211.46912189 414.55958883 209 417 C208.175 417.825 207.35 418.65 206.5 419.5 C204 422 201.5 424.5 199 427 C198.175 427.84175781 197.35 428.68351562 196.5 429.55078125 C192.27236825 433.69253923 187.62916694 437.32087492 183 441 C182.42491699 441.45729492 181.84983398 441.91458984 181.25732422 442.38574219 C179.48952962 443.78514592 177.71502552 445.17548393 175.9375 446.5625 C175.37740234 447.00424561 174.81730469 447.44599121 174.24023438 447.90112305 C170.23246032 451 170.23246032 451 168 451 C168 451.66 168 452.32 168 453 C167.40316406 453.31710937 166.80632812 453.63421875 166.19140625 453.9609375 C161.7751439 456.33640105 157.40084043 458.7368593 153.1171875 461.34375 C143.72587493 467.04557858 134.23744807 471.85416564 124.10229492 476.09692383 C122.70819649 476.69578228 121.32493654 477.32057256 119.9543457 477.97143555 C113.25624494 481.1313241 106.31118853 483.08644744 99.1875 485.0625 C97.99318359 485.40087891 96.79886719 485.73925781 95.56835938 486.08789062 C92.05057143 487.07792675 88.52706507 488.04359318 85 489 C83.98107666 489.28262695 82.96215332 489.56525391 81.91235352 489.85644531 C74.50887783 491.82809943 67.17714061 492.85167239 59.5625 493.625 C57.29277857 493.86539866 55.02323875 494.10751973 52.75390625 494.3515625 C51.76720947 494.45291504 50.7805127 494.55426758 49.76391602 494.65869141 C47.04379426 494.94934205 47.04379426 494.94934205 44.58569336 495.53930664 C38.525327 496.61908299 32.14191748 495.98525934 26 495.8125 C24.83584061 495.78041443 24.83584061 495.78041443 23.64816284 495.74768066 C-2.42228237 494.97042682 -27.69673321 490.94569276 -52.46875 482.69921875 C-55.20492551 481.82249157 -55.20492551 481.82249157 -59 482 C-59.33 481.34 -59.66 480.68 -60 480 C-61.80204488 479.03949215 -61.80204488 479.03949215 -64.0234375 478.1875 C-64.86994873 477.83969482 -65.71645996 477.49188965 -66.58862305 477.13354492 C-67.50812744 476.7594751 -68.42763184 476.38540527 -69.375 476 C-96.76708307 464.5145026 -143.84802643 441.30394714 -158 413 C-158.99 412.34 -159.98 411.68 -161 411 C-164 407.44444444 -164 407.44444444 -164 405 C-164.66 405 -165.32 405 -166 405 C-167.44526736 403.26451831 -168.8087222 401.46024037 -170.125 399.625 C-171.21167969 398.12839844 -171.21167969 398.12839844 -172.3203125 396.6015625 C-174 394 -174 394 -174 392 C-174.66 392 -175.32 392 -176 392 C-176 391.01 -176 390.02 -176 389 C-176.66 389 -177.32 389 -178 389 C-179.38867188 387.04394531 -179.38867188 387.04394531 -180.96875 384.328125 C-181.53980469 383.35359375 -182.11085937 382.3790625 -182.69921875 381.375 C-183.29347656 380.34375 -183.88773438 379.3125 -184.5 378.25 C-185.09425781 377.23421875 -185.68851563 376.2184375 -186.30078125 375.171875 C-190.69357435 367.63570624 -190.69357435 367.63570624 -192.06054688 364.79980469 C-192.97886727 362.82136626 -192.97886727 362.82136626 -195 361 C-195.67404896 359.00247592 -196.33875214 357.00179812 -197 355 C-198.37736661 351.82657657 -199.85450654 348.69954911 -201.3125 345.5625 C-207.4217318 332.19718142 -212.13320629 318.44101641 -215 304 C-215.18369141 303.1140918 -215.36738281 302.22818359 -215.55664062 301.31542969 C-218.34575841 287.85589222 -220.87636981 274.78064467 -221 261 C-221.01369629 259.99324219 -221.02739258 258.98648437 -221.04150391 257.94921875 C-221.21082107 243.93057358 -221.04454856 229.98202859 -220 216 C-219.92652344 214.63681641 -219.92652344 214.63681641 -219.8515625 213.24609375 C-219.35989732 206.14036123 -217.51138545 199.34071807 -215.6640625 192.48779297 C-214.93278048 189.74817393 -214.2333278 187.00114753 -213.53125 184.25390625 C-202.74934493 142.99955206 -181.60309642 102.83973518 -150.3046875 73.33203125 C-148.75188784 71.82926368 -148.75188784 71.82926368 -147 69 C-144.69835318 66.94853218 -142.37331896 64.96623166 -140 63 C-138.43904739 61.70219649 -136.87812304 60.40435868 -135.31787109 59.10571289 C-134.24255551 58.21154885 -133.16608194 57.31877532 -132.08837891 56.42749023 C-129.98010064 54.67920337 -127.93795226 52.93795226 -126 51 C-120.69176119 46.73235958 -115.08337289 43.06315471 -109.25 39.5625 C-108.06603638 38.84755371 -108.06603638 38.84755371 -106.8581543 38.11816406 C-105.2867988 37.17115108 -103.71416426 36.22625652 -102.14013672 35.28369141 C-100.31872983 34.19117972 -98.50430414 33.08704279 -96.69140625 31.98046875 C-76.15831546 19.63832599 -53.24105975 11.49155842 -30 6 C-29.31695801 5.82799072 -28.63391602 5.65598145 -27.93017578 5.47875977 C-21.7239109 3.93936115 -15.41380826 2.65330766 -9 3 C-8.67 2.34 -8.34 1.68 -8 1 C-5.36 1.33 -2.72 1.66 0 2 C0 1.34 0 0.68 0 0 Z " fill="#F96B3A" transform="translate(273,50)"/>
<path d="M0 0 C4.81254072 3.07127599 8.96837862 7.44498583 10.76171875 12.95703125 C12.92639226 25.13041023 8.03355224 34.30007486 1.25 44.0625 C-0.00059038 45.9019425 -1.25054532 47.74181712 -2.5 49.58203125 C-3.1909375 50.59346191 -3.881875 51.60489258 -4.59375 52.64697266 C-9.02692165 59.14907127 -13.38289091 65.70345187 -17.75 72.25 C-18.22197815 72.95671844 -18.6939563 73.66343689 -19.18023682 74.39157104 C-26.10132496 84.75842914 -32.89863972 95.19332753 -39.58789062 105.71142578 C-44.19846349 112.96021749 -48.90382348 120.13419684 -53.70849609 127.25537109 C-54.97292248 129.14645334 -56.21627348 131.05034312 -57.45703125 132.95703125 C-57.89289551 133.6226709 -58.32875977 134.28831055 -58.77783203 134.97412109 C-59.59476273 136.22264954 -60.40743423 137.47398313 -61.21435547 138.72900391 C-66.26073197 146.40545596 -72.09676311 152.58039276 -79.5 158 C-80.99099835 159.11703677 -82.48187798 160.23423203 -83.97265625 161.3515625 C-84.76043457 161.93711914 -85.54821289 162.52267578 -86.35986328 163.12597656 C-90.90711086 166.51412182 -95.42145111 169.94545324 -99.9375 173.375 C-100.8052002 174.02855469 -101.67290039 174.68210937 -102.56689453 175.35546875 C-108.60477808 179.93135271 -114.51148328 184.63648328 -119.875 190 C-122.5 189.625 -122.5 189.625 -124.875 189 C-124.45747957 185.15881202 -123.82031969 181.6067466 -122.66796875 177.91796875 C-121.16915305 173.01749306 -119.75251298 168.09704136 -118.3515625 163.16796875 C-117.8830374 161.52793053 -117.41428295 159.88795781 -116.9453125 158.24804688 C-116.22289436 155.72178289 -115.50215225 153.19511027 -114.78710938 150.66674805 C-107.04999758 123.33374878 -107.04999758 123.33374878 -100.4375 114.0625 C-99.55206846 112.79088215 -98.66942495 111.51732002 -97.7890625 110.2421875 C-97.08378418 109.22656738 -97.08378418 109.22656738 -96.36425781 108.19042969 C-93.57632034 104.08987641 -90.95691949 99.88141324 -88.3125 95.6875 C-81.01530418 84.1645043 -73.55210334 72.7533067 -66.0703125 61.34960938 C-63.85452559 57.97060843 -61.64535191 54.58731438 -59.4375 51.203125 C-55.89845078 45.77869818 -52.35344467 40.35820826 -48.80273438 34.94140625 C-47.56587403 33.05416037 -46.33010024 31.16620168 -45.09570312 29.27734375 C-19.5156703 -9.82398997 -19.5156703 -9.82398997 0 0 Z " fill="#FEFCF7" transform="translate(425.875,160)"/>
<path d="M0 0 C7.71549659 8.13255046 8.91997851 18.16270333 8.71484375 28.8671875 C7.91829556 44.87185327 1.50240963 60.35797504 -4.36230469 75.08691406 C-7.23453196 82.34897137 -10.02978115 89.64074811 -12.8125 96.9375 C-13.27334488 98.1450444 -13.27334488 98.1450444 -13.74349976 99.37698364 C-18.38137853 111.56998523 -22.52999275 123.76716239 -25.6875 136.4375 C-25.86651855 137.08259521 -26.04553711 137.72769043 -26.22998047 138.39233398 C-27.08049404 142.19422951 -26.95609908 146.05665846 -27 149.9375 C-27.02900391 150.79214844 -27.05800781 151.64679688 -27.08789062 152.52734375 C-27.14639422 157.58326676 -27.14639422 157.58326676 -24.95703125 162.04296875 C-22.236467 163.71464076 -21.17541987 163.84317854 -18.0625 163.25 C-8.18037601 160.69602963 -2.12840774 152.57808371 2.84570312 144.14160156 C7.51997365 135.68943988 10.99051656 126.6418731 14.67578125 117.73046875 C24.82020056 93.30411182 24.82020056 93.30411182 32.3125 87.4375 C36.02127812 86.02816431 37.41676857 86.07106442 41.0625 87.5625 C44.72931947 90.61818289 45.21884181 93.69046446 45.8046875 98.36328125 C45.93427325 99.82534655 46.06180831 101.28759478 46.1875 102.75 C46.83717365 109.09343511 47.59804141 114.08430968 51.3125 119.4375 C54.68730056 121.56237443 57.20171781 121.6477306 61.16796875 121.06640625 C63.61654966 120.34833425 65.28670606 119.26822335 67.375 117.8125 C70.48912562 115.68727817 71.17862098 115.4375 75.1875 115.4375 C78.3125 116.4375 78.3125 116.4375 80.3125 119.4375 C80.75 122.3125 80.75 122.3125 80.3125 125.4375 C76.161401 130.9276632 69.11893059 135.15377242 62.3125 136.4375 C54.48593288 137.2025028 48.63852844 135.65485229 42.125 131.3125 C37.21786787 126.88803661 34.36723766 120.87933864 33.3125 114.4375 C32.6525 114.4375 31.9925 114.4375 31.3125 114.4375 C30.961875 115.571875 30.61125 116.70625 30.25 117.875 C23.07659039 139.26051692 13.03930759 164.05395882 -7.6953125 175.55078125 C-14.71106284 178.75494428 -22.02534701 179.6168374 -29.375 177.25 C-35.74868701 173.76251088 -39.13125095 169.09652877 -41.6875 162.4375 C-47.8543464 134.17278735 -30.59795952 100.98935467 -20.6875 75.4375 C-7.65349745 45.95231674 -7.65349745 45.95231674 -7.9375 14.8125 C-9.82376025 12.25257538 -10.77379703 11.56172522 -13.6875 10.4375 C-24.4192151 9.60261779 -32.76402469 14.72820653 -40.6875 21.4375 C-49.48707242 29.76292747 -56.52290392 39.67034589 -62.78344727 49.99487305 C-64.58182312 52.92560703 -65.76821655 54.49131103 -68.6875 56.4375 C-75.14033019 55.98466981 -75.14033019 55.98466981 -77.6875 53.4375 C-78.46599274 47.22497381 -76.68322309 43.79295094 -73.375 38.8125 C-72.93003174 38.12172363 -72.48506348 37.43094727 -72.02661133 36.71923828 C-67.46565391 29.8027263 -62.17427669 23.62381965 -56.6875 17.4375 C-55.8728125 16.42042969 -55.058125 15.40335937 -54.21875 14.35546875 C-40.91919693 -0.97596049 -18.7583695 -10.90602878 0 0 Z " fill="#FEF9F2" transform="translate(241.6875,247.5625)"/>
<path d="M0 0 C2.4375 0.375 2.4375 0.375 4.4375 2.375 C4.27360119 8.4140409 2.13669226 12.07281591 -1.19140625 16.85546875 C-1.6593309 17.54957352 -2.12725555 18.24367828 -2.60935974 18.95881653 C-4.10276664 21.16833362 -5.61333271 23.36544686 -7.125 25.5625 C-8.11380905 27.01808009 -9.10144996 28.47445445 -10.08789062 29.93164062 C-12.00644989 32.76296185 -13.93220097 35.58916122 -15.86376953 38.41162109 C-18.96790917 42.95542956 -22.0001613 47.54501008 -25.01928711 52.14575195 C-26.5625 54.375 -26.5625 54.375 -28.5625 56.375 C-31.0625 56.625 -31.0625 56.625 -33.5625 56.375 C-34.2225 55.715 -34.8825 55.055 -35.5625 54.375 C-35.42816919 48.69952341 -32.70795682 45.09231276 -29.5625 40.625 C-28.47879427 39.04541834 -27.39687624 37.46460924 -26.31640625 35.8828125 C-25.72230957 35.01688477 -25.12821289 34.15095703 -24.51611328 33.25878906 C-20.37924557 27.15223052 -16.38966422 20.94695894 -12.37084961 14.7623291 C-11.29920397 13.11421609 -10.22580372 11.46724437 -9.15234375 9.8203125 C-8.53222412 8.86656738 -7.91210449 7.91282227 -7.27319336 6.93017578 C-2.91946939 0.42723942 -2.91946939 0.42723942 0 0 Z " fill="#FDF7ED" transform="translate(377.5625,170.625)"/>
<path d="M0 0 C0.99 0.495 0.99 0.495 2 1 C1.19175781 1.59167969 0.38351563 2.18335937 -0.44921875 2.79296875 C-1.52880822 3.59092618 -2.60822616 4.38911572 -3.6875 5.1875 C-5.27111328 6.35345703 -5.27111328 6.35345703 -6.88671875 7.54296875 C-10.00455618 9.89991936 -10.00455618 9.89991936 -12.51953125 12.55078125 C-15.1545971 15.15264942 -17.91255603 16.96680519 -21 19 C-25.13045866 22.52488658 -29.06219877 26.26267765 -33 30 C-33.93585938 30.88171875 -34.87171875 31.7634375 -35.8359375 32.671875 C-42.97629449 39.58717776 -49.0708386 47.04101609 -55 55 C-55.43199707 55.5765332 -55.86399414 56.15306641 -56.30908203 56.74707031 C-76.14277542 83.36735905 -89.11671691 113.11129146 -98 145 C-98.33 145 -98.66 145 -99 145 C-98.56802631 137.98228942 -97.29719688 131.76078089 -95 125.125 C-94.69239746 124.22297852 -94.38479492 123.32095703 -94.06787109 122.39160156 C-82.14236798 88.31704121 -62.72833152 55.24387474 -36.3046875 30.33203125 C-34.75188784 28.82926368 -34.75188784 28.82926368 -33 26 C-30.69835318 23.94853218 -28.37331896 21.96623166 -26 20 C-24.43904739 18.70219649 -22.87812304 17.40435868 -21.31787109 16.10571289 C-20.24255551 15.21154885 -19.16608194 14.31877532 -18.08837891 13.42749023 C-15.98010064 11.67920337 -13.93795226 9.93795226 -12 8 C-10.72227586 6.98224571 -9.42886165 5.98404653 -8.125 5 C-7.44695312 4.484375 -6.76890625 3.96875 -6.0703125 3.4375 C-4.08505264 2.05905542 -2.24363232 0.90120796 0 0 Z " fill="#D8622C" transform="translate(159,93)"/>
<path d="M0 0 C2.05371529 2.63224747 3.762474 5.24822149 5.3125 8.203125 C28.08447687 50.98062936 62.98933229 89.00186012 107.4375 109.66015625 C110 111 110 111 111 113 C112.99508067 113.68124706 114.99638693 114.34427209 117 115 C119.70416808 116.26226876 122.35560333 117.61739666 125 119 C122.68122993 119.80343776 121.38750815 120.11965414 119.01147461 119.38598633 C118.31546143 119.03818115 117.61944824 118.69037598 116.90234375 118.33203125 C116.11061768 117.93975342 115.3188916 117.54747559 114.50317383 117.14331055 C113.65650146 116.70414307 112.8098291 116.26497559 111.9375 115.8125 C111.05280029 115.35979736 110.16810059 114.90709473 109.2565918 114.44067383 C87.33922057 103.01576471 49.61127818 82.22255636 38 59 C37.01 58.34 36.02 57.68 35 57 C32 53.44444444 32 53.44444444 32 51 C31.34 51 30.68 51 30 51 C28.55473264 49.26451831 27.1912778 47.46024037 25.875 45.625 C25.15054688 44.62726563 24.42609375 43.62953125 23.6796875 42.6015625 C22 40 22 40 22 38 C21.34 38 20.68 38 20 38 C20 37.01 20 36.02 20 35 C19.34 35 18.68 35 18 35 C16.61132812 33.04394531 16.61132812 33.04394531 15.03125 30.328125 C14.46019531 29.35359375 13.88914062 28.3790625 13.30078125 27.375 C12.70652344 26.34375 12.11226562 25.3125 11.5 24.25 C10.90574219 23.23421875 10.31148437 22.2184375 9.69921875 21.171875 C5.30642565 13.63570624 5.30642565 13.63570624 3.93945312 10.79980469 C3.02113273 8.82136626 3.02113273 8.82136626 1 7 C0.59952556 4.67724823 0.2602896 2.34260643 0 0 Z " fill="#D24826" transform="translate(77,404)"/>
<path d="M0 0 C0.99 1.485 0.99 1.485 2 3 C1.34 3 0.68 3 0 3 C-0.226875 3.804375 -0.45375 4.60875 -0.6875 5.4375 C-2.3423262 9.92917111 -4.5870575 13.87692184 -7 18 C-7.48404297 18.83289551 -7.96808594 19.66579102 -8.46679688 20.52392578 C-12.2774196 26.98439311 -16.43240044 33.10217907 -20.90625 39.1171875 C-23.00651984 41.91852685 -23.00651984 41.91852685 -24.62890625 44.7265625 C-26.36731466 47.60905166 -28.59536842 49.65401797 -31 52 C-31.66 52.825 -32.32 53.65 -33 54.5 C-35.16870368 57.21087959 -37.53087811 59.55958883 -40 62 C-40.825 62.825 -41.65 63.65 -42.5 64.5 C-45 67 -47.5 69.5 -50 72 C-50.825 72.84175781 -51.65 73.68351562 -52.5 74.55078125 C-56.72763175 78.69253923 -61.37083306 82.32087492 -66 86 C-66.57508301 86.45729492 -67.15016602 86.91458984 -67.74267578 87.38574219 C-69.51047038 88.78514592 -71.28497448 90.17548393 -73.0625 91.5625 C-73.62259766 92.00424561 -74.18269531 92.44599121 -74.75976562 92.90112305 C-78.76753968 96 -78.76753968 96 -81 96 C-81 96.66 -81 97.32 -81 98 C-81.59683594 98.31710937 -82.19367188 98.63421875 -82.80859375 98.9609375 C-87.3236501 101.38954136 -91.79446718 103.86128705 -96.19921875 106.484375 C-96.93019775 106.91959473 -97.66117676 107.35481445 -98.41430664 107.80322266 C-99.85235759 108.66303578 -101.28789243 109.52707596 -102.72045898 110.39599609 C-112.71640242 116.37256277 -112.71640242 116.37256277 -118 118 C-118.99 117.67 -119.98 117.34 -121 117 C-120.42032471 116.71278076 -119.84064941 116.42556152 -119.2434082 116.12963867 C-116.59870611 114.81772898 -113.9555945 113.50264529 -111.3125 112.1875 C-110.40048828 111.73568359 -109.48847656 111.28386719 -108.54882812 110.81835938 C-100.75917241 107.1725812 -100.75917241 107.1725812 -94 102 C-92.76434386 101.30710871 -91.51136371 100.64490776 -90.25 100 C-79.78615812 94.28021505 -65.49609799 85.64549064 -58.51171875 75.9296875 C-57 74 -57 74 -54.703125 72.625 C-51.20770272 70.52370568 -48.59764308 67.8958652 -45.75 65 C-45.18442383 64.42910645 -44.61884766 63.85821289 -44.03613281 63.27001953 C-35.03730514 54.58265231 -35.03730514 54.58265231 -29 44 C-27.85834895 42.89294444 -26.71656356 41.78602717 -25.57421875 40.6796875 C-14.76595048 29.14729208 -7.29236954 13.90474321 0 0 Z " fill="#D44926" transform="translate(522,405)"/>
<path d="M0 0 C2.31 0.33 4.62 0.66 7 1 C6.61070312 1.6084375 6.22140625 2.216875 5.8203125 2.84375 C2.65048861 7.81029435 -0.49796451 12.78864785 -3.61401367 17.7890625 C-7.40634568 23.8744154 -11.21135674 29.95166008 -15.0625 36 C-15.4445459 36.60561768 -15.8265918 37.21123535 -16.22021484 37.83520508 C-17.11962745 39.24123317 -18.05587389 40.62359747 -19 42 C-19.33 42 -19.66 42 -20 42 C-20 40.35 -20 38.7 -20 37 C-20.66 37 -21.32 37 -22 37 C-22 37.66 -22 38.32 -22 39 C-22.66 39 -23.32 39 -24 39 C-24.33 39.99 -24.66 40.98 -25 42 C-25.66 41.67 -26.32 41.34 -27 41 C-26.35973877 40.04222656 -25.71947754 39.08445313 -25.05981445 38.09765625 C-22.66375677 34.51268286 -20.26927441 30.92665957 -17.87524414 27.34033203 C-16.84278993 25.79415079 -15.80992 24.24824705 -14.77661133 22.70263672 C-13.28354824 20.46917006 -11.79202886 18.23467911 -10.30078125 16 C-9.84536453 15.31945557 -9.38994781 14.63891113 -8.92073059 13.93774414 C-5.85885972 9.34520059 -2.90102671 4.69573422 0 0 Z " fill="#E67445" transform="translate(381,178)"/>
<path d="M0 0 C5.1005011 -0.02514849 10.20096434 -0.04306659 15.30151367 -0.05493164 C17.0284081 -0.05988984 18.75529851 -0.06665843 20.48217773 -0.07543945 C35.44441106 -0.14948835 50.42152758 -0.13748971 65.1875 2.5625 C70.22383295 3.45812579 74.87141545 4.00741125 80 4 C82.16015625 4.5859375 82.16015625 4.5859375 84.0625 5.375 C85.06990234 5.78298828 85.06990234 5.78298828 86.09765625 6.19921875 C86.72542969 6.46347656 87.35320312 6.72773437 88 7 C88.99 7.391875 89.98 7.78375 91 8.1875 C91.99 8.5896875 91.99 8.5896875 93 9 C88.86688909 10.37770364 85.56514387 9.18168651 81.4375 8.25 C41.81773494 -0.01734355 -0.3145792 0.06840617 -39.421875 11.046875 C-43 12 -43 12 -46 12 C-46 11.34 -46 10.68 -46 10 C-40.66666667 8.66666667 -35.33333333 7.33333333 -30 6 C-28.96963623 5.73896484 -28.96963623 5.73896484 -27.91845703 5.47265625 C-21.71211078 3.94357934 -15.41207712 2.65340124 -9 3 C-8.67 2.34 -8.34 1.68 -8 1 C-5.36 1.33 -2.72 1.66 0 2 C0 1.34 0 0.68 0 0 Z " fill="#DD7233" transform="translate(273,50)"/>
<path d="M0 0 C4.50825145 1.45830685 7.67994169 3.98552904 11.1875 7.0625 C11.75919922 7.55637207 12.33089844 8.05024414 12.91992188 8.55908203 C14.61961369 10.03230653 16.31044234 11.51517517 18 13 C18.86238281 13.74894531 19.72476562 14.49789062 20.61328125 15.26953125 C34.16114679 27.22092164 45.98478116 40.06920303 56.37109375 54.8828125 C57.82903893 57.09626667 57.82903893 57.09626667 60 58 C60.99234233 59.65584395 61.92011173 61.35071564 62.8125 63.0625 C65.07212746 67.32636705 67.45660309 71.41706316 70.1171875 75.44140625 C71 77 71 77 71 79 C71.66 79.33 72.32 79.66 73 80 C73.93761121 81.61098653 74.80391401 83.26411715 75.625 84.9375 C76.07101562 85.83339844 76.51703125 86.72929687 76.9765625 87.65234375 C78 90 78 90 78 92 C78.66 92.33 79.32 92.66 80 93 C80.88671875 94.70703125 80.88671875 94.70703125 81.6875 96.8125 C81.95949219 97.49957031 82.23148438 98.18664062 82.51171875 98.89453125 C83.07222252 101.31142349 82.66780857 102.64807224 82 105 C81.69408936 104.33693848 81.38817871 103.67387695 81.07299805 102.99072266 C67.43032192 73.58187809 50.83837815 47.85938023 28 24.75 C27.45996338 24.20061768 26.91992676 23.65123535 26.36352539 23.08520508 C24.31349793 21.05195731 22.48177106 19.2373431 19.875 17.953125 C18 17 18 17 16.203125 14.734375 C13.43753931 11.3019105 10.25309005 8.89155774 6.75 6.25 C4.47811553 4.52354811 2.23210065 2.7785187 0 1 C0 0.67 0 0.34 0 0 Z " fill="#DB672F" transform="translate(445,97)"/>
<path d="M0 0 C0.33 0 0.66 0 1 0 C1.02505615 0.86463867 1.0501123 1.72927734 1.07592773 2.62011719 C1.55819768 19.08947173 2.07064605 35.54845778 3 52 C2.34 51.67 1.68 51.34 1 51 C0.53425022 48.30900127 0.23093242 45.71639152 0 43 C-0.08483643 42.0723584 -0.16967285 41.1447168 -0.25708008 40.18896484 C-0.94373355 32.07048522 -1.15203037 24.02015261 -1.125 15.875 C-1.12886719 14.67101562 -1.13273437 13.46703125 -1.13671875 12.2265625 C-1.13542969 11.07671875 -1.13414063 9.926875 -1.1328125 8.7421875 C-1.13168457 7.7094873 -1.13055664 6.67678711 -1.12939453 5.61279297 C-1 3 -1 3 0 0 Z " fill="#D3562A" transform="translate(53,281)"/>
<path d="M0 0 C0.33 0.66 0.66 1.32 1 2 C2.71108623 2.69726691 2.71108623 2.69726691 4.8125 3.25 C9.97106224 4.85635807 14.61279391 7.20974567 19.3984375 9.6953125 C22.01094906 11.08287728 22.01094906 11.08287728 25 12 C25 12.66 25 13.32 25 14 C25.87011719 14.2578125 26.74023438 14.515625 27.63671875 14.78125 C31.05103241 16.01849258 33.76743668 17.53383052 36.8125 19.5 C37.76769531 20.1084375 38.72289062 20.716875 39.70703125 21.34375 C42 23 42 23 43 25 C45.01669827 26.13350534 45.01669827 26.13350534 47 27 C46.67 27.66 46.34 28.32 46 29 C44.84564453 28.16082031 44.84564453 28.16082031 43.66796875 27.3046875 C35.16792147 21.31011823 26.2369461 16.3209881 17 11.5625 C15.83106201 10.95970215 14.66212402 10.3569043 13.45776367 9.73583984 C8.03932537 6.97187916 2.63803735 4.28635526 -3 2 C-2.01 1.34 -1.02 0.68 0 0 Z " fill="#DC6F32" transform="translate(397,68)"/>
<path d="M0 0 C0.66 0 1.32 0 2 0 C2 1.32 2 2.64 2 4 C2.66 4.33 3.32 4.66 4 5 C4.5625 7.5546875 4.5625 7.5546875 5 10.875 C5.62341536 15.32726561 6.27112351 19.76165373 7.0625 24.1875 C7.21847656 25.06792969 7.37445312 25.94835937 7.53515625 26.85546875 C7.91539163 29.03710823 7.91539163 29.03710823 9 31 C8.91075148 33.7235195 8.76646668 36.41013311 8.5625 39.125 C8.51029297 39.87910156 8.45808594 40.63320313 8.40429688 41.41015625 C8.27454996 43.2737937 8.13792512 45.13694996 8 47 C7.67 47 7.34 47 7 47 C6.93006836 46.30664551 6.86013672 45.61329102 6.78808594 44.89892578 C5.44636025 31.85053566 3.91545462 19.06260845 0.76953125 6.31640625 C0 3 0 3 0 0 Z " fill="#D95C2C" transform="translate(538,232)"/>
<path d="M0 0 C0.33 0 0.66 0 1 0 C1.67332993 3.08191704 2.33748859 6.1657408 3 9.25 C3.19078125 10.12269531 3.3815625 10.99539063 3.578125 11.89453125 C3.75859375 12.73886719 3.9390625 13.58320313 4.125 14.453125 C4.29257812 15.22817383 4.46015625 16.00322266 4.6328125 16.80175781 C5 19 5 19 5 23 C5.66 23.33 6.32 23.66 7 24 C7.39465208 26.58317727 7.50806152 29.14188281 7.65625 31.75 C7.7696875 32.4925 7.883125 33.235 8 34 C8.66 34.33 9.32 34.66 10 35 C10 36.65 10 38.3 10 40 C9.01 40.495 9.01 40.495 8 41 C7.18525038 38.1047827 6.37312678 35.20887172 5.5625 32.3125 C5.33240234 31.49587891 5.10230469 30.67925781 4.86523438 29.83789062 C3.76725986 25.9074601 2.74696843 22.01495533 2 18 C1.82339844 17.29359375 1.64679687 16.5871875 1.46484375 15.859375 C0.11008732 10.44034926 -0.17722861 5.58270127 0 0 Z " fill="#D7542A" transform="translate(56,336)"/>
<path d="M0 0 C0.66 0.33 1.32 0.66 2 1 C-10.61709032 13.79019064 -10.61709032 13.79019064 -15.125 17.5625 C-20.59269897 22.18540428 -25.23942406 27.67060524 -30 33 C-30 28.74847553 -27.54257049 26.9741037 -24.75 24.0625 C-24.21294434 23.49273437 -23.67588867 22.92296875 -23.12255859 22.3359375 C-19.3386001 18.34377867 -15.49863632 14.40511425 -11.625 10.5 C-11.15030273 10.02054932 -10.67560547 9.54109863 -10.18652344 9.04711914 C-6.94146862 5.81737119 -3.54617204 2.88714892 0 0 Z " fill="#F37F45" transform="translate(140,109)"/>
<path d="M0 0 C-1.9166404 2.65997622 -3.11069055 3.02392963 -6.37890625 3.73046875 C-7.7715372 3.89930314 -9.16637019 4.05057824 -10.5625 4.1875 C-11.30105225 4.26790527 -12.03960449 4.34831055 -12.80053711 4.43115234 C-21.19209338 5.25788061 -29.57908277 5.17728247 -38 5 C-38 4.67 -38 4.34 -38 4 C-31.29980211 3.29867087 -24.73742646 2.88955039 -18 3 C-18 2.34 -18 1.68 -18 1 C-16.1746875 1.0309375 -16.1746875 1.0309375 -14.3125 1.0625 C-9.44488078 1.07106975 -4.87646846 -0.13932767 0 0 Z " fill="#D34223" transform="translate(350,539)"/>
<path d="M0 0 C0.66 0.33 1.32 0.66 2 1 C1.19175781 1.59167969 0.38351563 2.18335937 -0.44921875 2.79296875 C-1.52880822 3.59092618 -2.60822616 4.38911572 -3.6875 5.1875 C-4.74324219 5.96480469 -5.79898438 6.74210937 -6.88671875 7.54296875 C-9.82572306 9.86245898 -12.37670831 12.33655588 -15 15 C-16.97485205 16.3703055 -18.97386717 17.70672372 -21 19 C-22.34175973 19.98866506 -23.67896002 20.9838154 -25 22 C-25.66 21.67 -26.32 21.34 -27 21 C-26.08476562 20.22914062 -25.16953125 19.45828125 -24.2265625 18.6640625 C-23.02600156 17.6510892 -21.82548292 16.63806576 -20.625 15.625 C-19.72007812 14.86316406 -19.72007812 14.86316406 -18.796875 14.0859375 C-18.21679688 13.59609375 -17.63671875 13.10625 -17.0390625 12.6015625 C-16.50490723 12.15119629 -15.97075195 11.70083008 -15.42041016 11.23681641 C-14.23658322 10.20600388 -13.10995961 9.10995961 -12 8 C-10.72227586 6.98224571 -9.42886165 5.98404653 -8.125 5 C-7.44695312 4.484375 -6.76890625 3.96875 -6.0703125 3.4375 C-4.08505264 2.05905542 -2.24363232 0.90120796 0 0 Z " fill="#DD6C31" transform="translate(159,93)"/>
<path d="M0 0 C0.33 0 0.66 0 1 0 C1 2.31 1 4.62 1 7 C0.34 7 -0.32 7 -1 7 C-0.88573491 9.41760876 -0.75900339 11.83347218 -0.625 14.25 C-0.5940625 14.93191406 -0.563125 15.61382812 -0.53125 16.31640625 C-0.29383604 21.50300488 -0.29383604 21.50300488 2 26 C4.67790463 26.83886169 7.1737941 26.81766414 10 27 C7.61283126 28.50303217 6.28934794 29.01411453 3.4375 28.875 C0.26794266 27.73721018 -0.39404248 26.97790409 -2 24 C-2.42024874 20.84756498 -2.37268256 17.73773198 -2.3125 14.5625 C-2.31572266 13.71623047 -2.31894531 12.86996094 -2.32226562 11.99804688 C-2.28411434 7.56902998 -2.0734383 4.02296595 0 0 Z " fill="#D66642" transform="translate(216,383)"/>
<path d="M0 0 C-1.66135251 4.26173035 -4.74435318 7.03991533 -7.9375 10.1875 C-8.47568359 10.73341797 -9.01386719 11.27933594 -9.56835938 11.84179688 C-12.01160618 14.27299314 -13.68733927 15.89577976 -17 17 C-14.49927303 11.49594898 -6.66137002 0 0 0 Z " fill="#FDEEE0" transform="translate(198,254)"/>
<path d="M0 0 C0 0.66 0 1.32 0 2 C-18.87317518 10.07937956 -18.87317518 10.07937956 -29 11 C-26.2532311 9.16882073 -24.04450412 8.18732171 -20.96484375 7.08984375 C-19.99095703 6.73986328 -19.01707031 6.38988281 -18.01367188 6.02929688 C-16.99853516 5.66900391 -15.98339844 5.30871094 -14.9375 4.9375 C-12.92542397 4.2184469 -10.91368777 3.49844191 -8.90234375 2.77734375 C-8.01023193 2.46015381 -7.11812012 2.14296387 -6.19897461 1.81616211 C-1.30571343 0 -1.30571343 0 0 0 Z " fill="#D44425" transform="translate(400,523)"/>
<path d="M0 0 C0 0.66 0 1.32 0 2 C-1.1446875 1.7525 -1.1446875 1.7525 -2.3125 1.5 C-9.92818932 0.46736416 -17.42236136 0.85620549 -25 2 C-24 0 -24 0 -21.6875 -1.125 C-14.54131644 -2.82070457 -6.81041456 -3.02685092 0 0 Z " fill="#DA6F43" transform="translate(237,243)"/>
<path d="M0 0 C-12.375 5.94 -12.375 5.94 -25 12 C-25.33 11.34 -25.66 10.68 -26 10 C-20.43176341 6.86584749 -14.82459922 3.82706513 -9.0625 1.0625 C-8.18722656 0.64097656 -7.31195313 0.21945313 -6.41015625 -0.21484375 C-4 -1 -4 -1 0 0 Z " fill="#DC6D2F" transform="translate(204,71)"/>
<path d="M0 0 C0 3 0 3 -1.64453125 4.75390625 C-2.35996094 5.35074219 -3.07539063 5.94757813 -3.8125 6.5625 C-4.52019531 7.16191406 -5.22789062 7.76132812 -5.95703125 8.37890625 C-9.42395525 11.12990713 -11.28872897 12.25250061 -15.6875 12.125 C-16.89986328 12.09792969 -16.89986328 12.09792969 -18.13671875 12.0703125 C-19.05904297 12.03550781 -19.05904297 12.03550781 -20 12 C-19.67 11.34 -19.34 10.68 -19 10 C-17.50918437 9.73378292 -16.00563906 9.5376462 -14.5 9.375 C-8.06109471 8.26164462 -4.41689563 4.58759691 0 0 Z " fill="#FDEADC" transform="translate(238,401)"/>
<path d="M0 0 C0.33 0 0.66 0 1 0 C0.98839844 0.96679688 0.97679687 1.93359375 0.96484375 2.9296875 C0.91334038 10.36088832 1.02716485 17.61687607 2 25 C-0.79671094 22.20328906 -1.18843107 19.86074934 -2 16 C-1.95817996 13.14072355 -1.57408221 10.38345892 -1.125 7.5625 C-1.02058594 6.83095703 -0.91617188 6.09941406 -0.80859375 5.34570312 C-0.55209621 3.5618793 -0.27788741 1.78061703 0 0 Z " fill="#D46241" transform="translate(199,388)"/>
<path d="M0 0 C6.27 0 12.54 0 19 0 C19 0.66 19 1.32 19 2 C17.98679687 1.97679687 16.97359375 1.95359375 15.9296875 1.9296875 C14.57813242 1.9109159 13.22656931 1.8927172 11.875 1.875 C10.87726563 1.84986328 10.87726563 1.84986328 9.859375 1.82421875 C5.50483944 1.78152722 2.04399886 2.40003783 -2 4 C-1.34 2.68 -0.68 1.36 0 0 Z " fill="#D97648" transform="translate(405,157)"/>
<path d="M0 0 C6.43681228 0.51085812 11.95942424 1.72942897 18 4 C18 4.66 18 5.32 18 6 C5.33029613 2.92482916 5.33029613 2.92482916 0 1 C0 0.67 0 0.34 0 0 Z " fill="#DC7031" transform="translate(367,60)"/>
<path d="M0 0 C0.66 0.33 1.32 0.66 2 1 C1.51789063 1.53109375 1.03578125 2.0621875 0.5390625 2.609375 C-0.09257812 3.31578125 -0.72421875 4.0221875 -1.375 4.75 C-2.00148438 5.44609375 -2.62796875 6.1421875 -3.2734375 6.859375 C-4.87505183 8.84508688 -5.96520068 10.67954093 -7 13 C-7.66 13 -8.32 13 -9 13 C-7.47987323 7.59510481 -3.72614782 4.01507372 0 0 Z " fill="#FEF0E2" transform="translate(274,335)"/>
<path d="M0 0 C1.03311995 3.1412431 0.99963588 4.8244183 -0.25 7.875 C-0.52972656 8.56335938 -0.80945313 9.25171875 -1.09765625 9.9609375 C-2.30569794 12.69079795 -3.61252055 15.357182 -5 18 C-6.39214652 13.82356045 -4.70664266 11.16562207 -3.0625 7.3125 C-2.77181641 6.61060547 -2.48113281 5.90871094 -2.18164062 5.18554688 C-1.46289687 3.45349225 -0.73254669 1.72626219 0 0 Z " fill="#D56A45" transform="translate(231,337)"/>
<path d="M0 0 C1.32 0.33 2.64 0.66 4 1 C4 1.66 4 2.32 4 3 C7.3 3.33 10.6 3.66 14 4 C10.38762496 6.40825003 8.98958709 6.23008634 4.875 5.625 C3 5 3 5 1 2.4375 C0.67 1.633125 0.34 0.82875 0 0 Z " fill="#D46B48" transform="translate(291,364)"/>
<path d="M0 0 C0.99 0.33 1.98 0.66 3 1 C3 4.96 3 8.92 3 13 C2.34 13 1.68 13 1 13 C0.67 8.71 0.34 4.42 0 0 Z " fill="#DC794C" transform="translate(436,173)"/>
<path d="M0 0 C-0.33 2.31 -0.66 4.62 -1 7 C-1.33 6.34 -1.66 5.68 -2 5 C-3.98 5.99 -3.98 5.99 -6 7 C-5.67 5.02 -5.34 3.04 -5 1 C-1.125 0 -1.125 0 0 0 Z " fill="#EB733F" transform="translate(381,185)"/>
<path d="M0 0 C0.33 0 0.66 0 1 0 C1 1.98 1 3.96 1 6 C2.98 5.34 4.96 4.68 7 4 C6.01 5.32 5.02 6.64 4 8 C2.35 7.67 0.7 7.34 -1 7 C-0.67 4.69 -0.34 2.38 0 0 Z " fill="#FDE6D2" transform="translate(302,342)"/>
<path d="M0 0 C0.66 0 1.32 0 2 0 C1.67 5.61 1.34 11.22 1 17 C0.67 17 0.34 17 0 17 C-0.19561869 14.9174133 -0.38119313 12.83388144 -0.5625 10.75 C-0.66691406 9.58984375 -0.77132812 8.4296875 -0.87890625 7.234375 C-0.98198087 4.48128523 -0.86213473 2.580018 0 0 Z " fill="#D15728" transform="translate(54,262)"/>
<path d="M0 0 C1.07310858 3.27185553 0.89263102 5.42947592 0.0625 8.75 C-0.22947266 9.94882812 -0.22947266 9.94882812 -0.52734375 11.171875 C-0.68332031 11.77515625 -0.83929688 12.3784375 -1 13 C-1.66 13 -2.32 13 -3 13 C-2.45144652 8.428721 -1.58255197 4.32564205 0 0 Z " fill="#D86C44" transform="translate(234,279)"/>
<path d="M0 0 C2.31 0 4.62 0 7 0 C7 0.33 7 0.66 7 1 C5.6078125 1.3403125 5.6078125 1.3403125 4.1875 1.6875 C0.45530287 3.22428705 -0.1724155 4.52758945 -2 8 C-2.66 8 -3.32 8 -4 8 C-3.34 6.02 -2.68 4.04 -2 2 C-1.34 2 -0.68 2 0 2 C0 1.34 0 0.68 0 0 Z " fill="#DB7444" transform="translate(373,170)"/>
<path d="M0 0 C0.66 0.33 1.32 0.66 2 1 C2.33 1.99 2.66 2.98 3 4 C5.64 4.33 8.28 4.66 11 5 C8.63554179 6.48873294 7.26095932 7.00636486 4.4375 6.9375 C1.2125892 5.69714969 0.48057822 4.03908161 -1 1 C-0.67 0.67 -0.34 0.34 0 0 Z " fill="#D66D4C" transform="translate(215,405)"/>
<path d="M0 0 C0.33 0 0.66 0 1 0 C1.36836955 4.29764472 0.39180503 6.46012855 -2 10 C-2.33 10.66 -2.66 11.32 -3 12 C-3.66 12 -4.32 12 -5 12 C-3.68938409 7.76570244 -2.05643741 3.92592596 0 0 Z " fill="#D56746" transform="translate(264,384)"/>
<path d="M0 0 C-1.44077046 3.36179774 -3.24750021 5.59156268 -6 8 C-6.66 8 -7.32 8 -8 8 C-6.48291727 4.46014029 -4.24676932 0 0 0 Z " fill="#FEF3E2" transform="translate(404,161)"/>
<path d="M0 0 C0.33 0.99 0.66 1.98 1 3 C-4.2734375 6.22265625 -4.2734375 6.22265625 -6 7 C-6.66 6.67 -7.32 6.34 -8 6 C-5.36 4.02 -2.72 2.04 0 0 Z " fill="#DA6C45" transform="translate(341,321)"/>
<path d="M0 0 C0.33 0.66 0.66 1.32 1 2 C-0.80831392 5.61662784 -3.05278838 8.25604436 -6 11 C-4.54955729 6.89041233 -2.48889248 3.56741255 0 0 Z " fill="#FCE8D4" transform="translate(385,183)"/>
<path d="M0 0 C2.31 0.33 4.62 0.66 7 1 C6.01 2.32 5.02 3.64 4 5 C4 4.01 4 3.02 4 2 C2.02 2.99 0.04 3.98 -2 5 C-1.34 3.35 -0.68 1.7 0 0 Z " fill="#DF7A4C" transform="translate(381,178)"/>
<path d="M0 0 C0.66 0.33 1.32 0.66 2 1 C-1.01887244 4.48331435 -3.56909529 5.79157144 -8 7 C-5.42215154 4.35247996 -3.08351902 2.05567935 0 0 Z " fill="#F38147" transform="translate(157,96)"/>
<path d="M0 0 C0.33 0.66 0.66 1.32 1 2 C0.34 1.67 -0.32 1.34 -1 1 C-0.67 0.67 -0.34 0.34 0 0 Z " fill="#F06F33" transform="translate(114,128)"/>
<path d="M0 0 C2 1 2 1 2 1 Z " fill="#E75A2F" transform="translate(533,388)"/>
<path d="" fill="#E05B32" transform="translate(0,0)"/>
<path d="" fill="#F36D3B" transform="translate(0,0)"/>
<path d="M0 0 C2 1 2 1 2 1 Z " fill="#DD6E36" transform="translate(477,122)"/>
<path d="M0 0 C2 1 2 1 2 1 Z " fill="#F7773D" transform="translate(123,114)"/>
<path d="" fill="#F1743B" transform="translate(0,0)"/>
<path d="M0 0 C2 1 2 1 2 1 Z " fill="#F1773B" transform="translate(177,72)"/>
<path d="" fill="#EB5635" transform="translate(0,0)"/>
<path d="" fill="#F35432" transform="translate(0,0)"/>
<path d="" fill="#E15333" transform="translate(0,0)"/>
<path d="" fill="#DC4F31" transform="translate(0,0)"/>
<path d="" fill="#DD5133" transform="translate(0,0)"/>
<path d="" fill="#E15333" transform="translate(0,0)"/>
<path d="" fill="#D54526" transform="translate(0,0)"/>
<path d="" fill="#D73D1C" transform="translate(0,0)"/>
<path d="" fill="#E15333" transform="translate(0,0)"/>
<path d="" fill="#E34A27" transform="translate(0,0)"/>
<path d="" fill="#E15333" transform="translate(0,0)"/>
<path d="" fill="#D94B2A" transform="translate(0,0)"/>
<path d="" fill="#F25A37" transform="translate(0,0)"/>
<path d="" fill="#D84B2D" transform="translate(0,0)"/>
<path d="" fill="#EB5836" transform="translate(0,0)"/>
<path d="" fill="#EB5836" transform="translate(0,0)"/>
<path d="" fill="#D3401D" transform="translate(0,0)"/>
<path d="" fill="#D94C2E" transform="translate(0,0)"/>
<path d="" fill="#D94E2D" transform="translate(0,0)"/>
<path d="" fill="#EF5937" transform="translate(0,0)"/>
<path d="" fill="#EF5937" transform="translate(0,0)"/>
<path d="" fill="#DA4E2E" transform="translate(0,0)"/>
<path d="" fill="#DC5031" transform="translate(0,0)"/>
<path d="" fill="#DA4420" transform="translate(0,0)"/>
<path d="" fill="#EC502A" transform="translate(0,0)"/>
<path d="" fill="#D84D2D" transform="translate(0,0)"/>
<path d="" fill="#D84D2E" transform="translate(0,0)"/>
<path d="" fill="#EB5A36" transform="translate(0,0)"/>
<path d="" fill="#F55E38" transform="translate(0,0)"/>
<path d="" fill="#D64C2A" transform="translate(0,0)"/>
<path d="" fill="#D74C2B" transform="translate(0,0)"/>
<path d="" fill="#EB5A36" transform="translate(0,0)"/>
<path d="" fill="#EB5A36" transform="translate(0,0)"/>
<path d="" fill="#CE4422" transform="translate(0,0)"/>
<path d="" fill="#D44825" transform="translate(0,0)"/>
<path d="" fill="#E05634" transform="translate(0,0)"/>
<path d="" fill="#F45E38" transform="translate(0,0)"/>
<path d="" fill="#DC502C" transform="translate(0,0)"/>
<path d="" fill="#D14828" transform="translate(0,0)"/>
<path d="" fill="#EB5B36" transform="translate(0,0)"/>
<path d="" fill="#DA512E" transform="translate(0,0)"/>
<path d="" fill="#C8401D" transform="translate(0,0)"/>
<path d="" fill="#D8411A" transform="translate(0,0)"/>
<path d="" fill="#E15635" transform="translate(0,0)"/>
<path d="" fill="#EB5B36" transform="translate(0,0)"/>
<path d="" fill="#CE3E1A" transform="translate(0,0)"/>
<path d="" fill="#EB5B36" transform="translate(0,0)"/>
<path d="" fill="#CD3B14" transform="translate(0,0)"/>
<path d="" fill="#DC5230" transform="translate(0,0)"/>
<path d="" fill="#D8512D" transform="translate(0,0)"/>
<path d="" fill="#DB5330" transform="translate(0,0)"/>
<path d="" fill="#E84C23" transform="translate(0,0)"/>
<path d="" fill="#F15F38" transform="translate(0,0)"/>
<path d="" fill="#EF5E37" transform="translate(0,0)"/>
<path d="" fill="#F15F38" transform="translate(0,0)"/>
<path d="" fill="#EF5E37" transform="translate(0,0)"/>
<path d="" fill="#F76036" transform="translate(0,0)"/>
<path d="" fill="#DB542E" transform="translate(0,0)"/>
<path d="" fill="#E45935" transform="translate(0,0)"/>
<path d="" fill="#F76137" transform="translate(0,0)"/>
<path d="" fill="#E15A34" transform="translate(0,0)"/>
<path d="" fill="#EC5E37" transform="translate(0,0)"/>
<path d="" fill="#E25B35" transform="translate(0,0)"/>
<path d="" fill="#E25A35" transform="translate(0,0)"/>
<path d="" fill="#DB542F" transform="translate(0,0)"/>
<path d="" fill="#F55C31" transform="translate(0,0)"/>
<path d="" fill="#E25B35" transform="translate(0,0)"/>
<path d="" fill="#D04922" transform="translate(0,0)"/>
<path d="" fill="#DD5731" transform="translate(0,0)"/>
<path d="" fill="#F56239" transform="translate(0,0)"/>
<path d="" fill="#DA542D" transform="translate(0,0)"/>
<path d="" fill="#D04C25" transform="translate(0,0)"/>
<path d="" fill="#F66439" transform="translate(0,0)"/>
<path d="" fill="#E15B35" transform="translate(0,0)"/>
<path d="" fill="#DC5630" transform="translate(0,0)"/>
<path d="" fill="#F06138" transform="translate(0,0)"/>
<path d="" fill="#DC562E" transform="translate(0,0)"/>
<path d="" fill="#F06138" transform="translate(0,0)"/>
<path d="" fill="#F66439" transform="translate(0,0)"/>
<path d="" fill="#E35D36" transform="translate(0,0)"/>
<path d="" fill="#DB5930" transform="translate(0,0)"/>
<path d="" fill="#E35D36" transform="translate(0,0)"/>
<path d="" fill="#F06439" transform="translate(0,0)"/>
<path d="" fill="#F06439" transform="translate(0,0)"/>
<path d="" fill="#DA4D21" transform="translate(0,0)"/>
<path d="" fill="#DA5B32" transform="translate(0,0)"/>
<path d="" fill="#E65324" transform="translate(0,0)"/>
<path d="" fill="#F06439" transform="translate(0,0)"/>
<path d="" fill="#F1663A" transform="translate(0,0)"/>
<path d="" fill="#ED6539" transform="translate(0,0)"/>
<path d="" fill="#F6693B" transform="translate(0,0)"/>
<path d="" fill="#E04E1F" transform="translate(0,0)"/>
<path d="" fill="#D9572C" transform="translate(0,0)"/>
<path d="" fill="#ED6539" transform="translate(0,0)"/>
<path d="" fill="#ED6539" transform="translate(0,0)"/>
<path d="" fill="#E36137" transform="translate(0,0)"/>
<path d="" fill="#ED6639" transform="translate(0,0)"/>
<path d="" fill="#F1673A" transform="translate(0,0)"/>
<path d="" fill="#F4683A" transform="translate(0,0)"/>
<path d="" fill="#ED6539" transform="translate(0,0)"/>
<path d="" fill="#F96C3B" transform="translate(0,0)"/>
<path d="" fill="#F5693B" transform="translate(0,0)"/>
<path d="" fill="#F86B3B" transform="translate(0,0)"/>
<path d="" fill="#E46437" transform="translate(0,0)"/>
<path d="" fill="#EE6939" transform="translate(0,0)"/>
<path d="" fill="#E46437" transform="translate(0,0)"/>
<path d="" fill="#FA703C" transform="translate(0,0)"/>
<path d="" fill="#EE6939" transform="translate(0,0)"/>
<path d="" fill="#DB6438" transform="translate(0,0)"/>
<path d="" fill="#EE693A" transform="translate(0,0)"/>
<path d="" fill="#EE693A" transform="translate(0,0)"/>
<path d="" fill="#F96E3A" transform="translate(0,0)"/>
<path d="" fill="#F96E3A" transform="translate(0,0)"/>
<path d="" fill="#D45928" transform="translate(0,0)"/>
<path d="" fill="#F26D3B" transform="translate(0,0)"/>
<path d="" fill="#F9713B" transform="translate(0,0)"/>
<path d="" fill="#E26534" transform="translate(0,0)"/>
<path d="" fill="#E56838" transform="translate(0,0)"/>
<path d="" fill="#E46738" transform="translate(0,0)"/>
<path d="" fill="#F26E3B" transform="translate(0,0)"/>
<path d="" fill="#DD5C29" transform="translate(0,0)"/>
<path d="" fill="#E46838" transform="translate(0,0)"/>
<path d="" fill="#E56838" transform="translate(0,0)"/>
<path d="" fill="#EF6D3A" transform="translate(0,0)"/>
<path d="" fill="#EF6D3A" transform="translate(0,0)"/>
<path d="" fill="#DF6633" transform="translate(0,0)"/>
<path d="" fill="#E25C25" transform="translate(0,0)"/>
<path d="" fill="#E06937" transform="translate(0,0)"/>
<path d="" fill="#DC6634" transform="translate(0,0)"/>
<path d="" fill="#FA743B" transform="translate(0,0)"/>
<path d="" fill="#E56A38" transform="translate(0,0)"/>
<path d="" fill="#DD632E" transform="translate(0,0)"/>
<path d="" fill="#E56B38" transform="translate(0,0)"/>
<path d="" fill="#FB753B" transform="translate(0,0)"/>
<path d="" fill="#EF703B" transform="translate(0,0)"/>
<path d="" fill="#E16A36" transform="translate(0,0)"/>
<path d="" fill="#E56B38" transform="translate(0,0)"/>
<path d="" fill="#FB763B" transform="translate(0,0)"/>
<path d="" fill="#DF642D" transform="translate(0,0)"/>
<path d="" fill="#F4743C" transform="translate(0,0)"/>
<path d="" fill="#FA773C" transform="translate(0,0)"/>
<path d="" fill="#F4743C" transform="translate(0,0)"/>
<path d="" fill="#F0723B" transform="translate(0,0)"/>
<path d="" fill="#F4743C" transform="translate(0,0)"/>
<path d="" fill="#E66D38" transform="translate(0,0)"/>
<path d="" fill="#FB763A" transform="translate(0,0)"/>
<path d="" fill="#F4743C" transform="translate(0,0)"/>
<path d="" fill="#F0723B" transform="translate(0,0)"/>
<path d="" fill="#F0723B" transform="translate(0,0)"/>
<path d="" fill="#E16E36" transform="translate(0,0)"/>
<path d="" fill="#E66F39" transform="translate(0,0)"/>
<path d="" fill="#F0743B" transform="translate(0,0)"/>
<path d="" fill="#DC6A30" transform="translate(0,0)"/>
<path d="" fill="#F4763C" transform="translate(0,0)"/>
<path d="" fill="#F1743B" transform="translate(0,0)"/>
<path d="" fill="#E7743E" transform="translate(0,0)"/>
<path d="" fill="#F4763C" transform="translate(0,0)"/>
<path d="" fill="#E7763C" transform="translate(0,0)"/>
<path d="" fill="#F1763B" transform="translate(0,0)"/>
<path d="" fill="#F1753B" transform="translate(0,0)"/>
<path d="" fill="#E77139" transform="translate(0,0)"/>
<path d="" fill="#E8773C" transform="translate(0,0)"/>
<path d="" fill="#E96A2C" transform="translate(0,0)"/>
<path d="" fill="#EB6A29" transform="translate(0,0)"/>
<path d="" fill="#DE6629" transform="translate(0,0)"/>
<path d="" fill="#E77239" transform="translate(0,0)"/>
<path d="" fill="#F1783B" transform="translate(0,0)"/>
<path d="" fill="#F1783B" transform="translate(0,0)"/>
<path d="" fill="#E77239" transform="translate(0,0)"/>
<path d="" fill="#E77239" transform="translate(0,0)"/>
<path d="" fill="#F1783B" transform="translate(0,0)"/>
<path d="" fill="#F77B3C" transform="translate(0,0)"/>
<path d="" fill="#DE6A2C" transform="translate(0,0)"/>
<path d="" fill="#E77339" transform="translate(0,0)"/>
<path d="" fill="#E77339" transform="translate(0,0)"/>
<path d="" fill="#E77339" transform="translate(0,0)"/>
<path d="" fill="#E77439" transform="translate(0,0)"/>
<path d="" fill="#F2793B" transform="translate(0,0)"/>
<path d="" fill="#DE7132" transform="translate(0,0)"/>
<path d="" fill="#F2793B" transform="translate(0,0)"/>
<path d="" fill="#E77439" transform="translate(0,0)"/>
<path d="" fill="#E06D2F" transform="translate(0,0)"/>
<path d="" fill="#E87439" transform="translate(0,0)"/>
<path d="" fill="#E77439" transform="translate(0,0)"/>
<path d="" fill="#E87539" transform="translate(0,0)"/>
<path d="" fill="#E77539" transform="translate(0,0)"/>
<path d="" fill="#E87539" transform="translate(0,0)"/>
<path d="" fill="#E77539" transform="translate(0,0)"/>
<path d="" fill="#E77539" transform="translate(0,0)"/>
<path d="" fill="#E87539" transform="translate(0,0)"/>
<path d="" fill="#E87539" transform="translate(0,0)"/>
</svg>
